<?xml version="1.0" encoding="UTF-8" standalone="no"?>
<!DOCTYPE svg PUBLIC "-//W3C//DTD SVG 1.1//EN" "http://www.w3.org/Graphics/SVG/1.1/DTD/svg11.dtd">
<svg version="1.1" xmlns="http://www.w3.org/2000/svg" xmlns:xlink="http://www.w3.org/1999/xlink" preserveAspectRatio="xMidYMid meet" viewBox="0 0 128 128" width="128" height="128"><defs><path d="M94.81 0.03L95.15 0.06L95.48 0.11L95.8 0.17L96.12 0.24L96.44 0.32L96.75 0.42L97.05 0.53L97.35 0.65L97.65 0.78L97.93 0.92L98.21 1.07L98.49 1.24L98.75 1.41L99.01 1.59L99.27 1.78L99.51 1.99L99.75 2.2L99.98 2.42L100.2 2.65L100.41 2.88L100.61 3.13L100.8 3.38L100.98 3.64L101.16 3.91L101.32 4.18L101.47 4.46L101.62 4.75L101.75 5.04L101.87 5.34L101.97 5.65L102.07 5.96L102.16 6.27L102.23 6.59L102.29 6.92L102.33 7.25L102.37 7.58L102.39 7.92L102.4 8.26L102.4 85.3L102.4 127.97L64.02 85.33L48.64 85.33L64 85.33L25.6 128L25.6 85.33L33.85 85.33L33.51 85.33L33.44 85.32L25.6 85.32L25.6 8.26L25.6 7.92L25.62 7.58L25.66 7.25L25.7 6.92L25.76 6.59L25.84 6.27L25.92 5.96L26.02 5.65L26.12 5.34L26.24 5.04L26.38 4.75L26.52 4.46L26.67 4.18L26.83 3.91L27.01 3.64L27.19 3.38L27.38 3.13L27.58 2.88L27.79 2.65L28.01 2.42L28.24 2.2L28.48 1.99L28.72 1.78L28.98 1.59L29.24 1.41L29.5 1.24L29.78 1.07L30.06 0.92L30.35 0.78L30.64 0.65L30.94 0.53L31.24 0.42L31.55 0.32L31.87 0.24L32.19 0.17L32.51 0.11L32.84 0.06L33.18 0.03L33.51 0.01L33.85 0L94.14 0L94.48 0.01L94.81 0.03Z" id="gnS4IJOxz"></path></defs><g><g><g><use xlink:href="#gnS4IJOxz" opacity="1" fill="#007eff" fill-opacity="1"></use></g></g></g></svg>